<svg xmlns="http://www.w3.org/2000/svg" xmlns:xlink="http://www.w3.org/1999/xlink" id="a83dc289-c805-49c9-a9fa-976901667937" x="0px" y="0px" viewBox="0 0 196 55" style="enable-background:new 0 0 196 55;" xml:space="preserve"><g id="a9183219-a793-4bb5-9df8-02cf2033ed33">	<g id="a9060cda-1313-4f72-bf05-8a078df79537">		<g id="ae50164a-e47e-42a5-9aff-e8a88512cc30">			<g id="b6b1018c-cbe1-49b5-a437-a9b2ac1a37a4">				<rect id="b613b5a3-f887-440e-9ce6-b8a8fd0f70c1" style="fill:#D8D8D8;fill-opacity:0;" width="196" height="55"></rect>				<rect x="26" y="16" style="fill:#C8D5DC;" width="7" height="21.9249"></rect>				<rect x="13" y="23.016" style="fill:#C8D5DC;" width="7" height="14.9089"></rect>				<rect y="29.155" style="fill:#C8D5DC;" width="7" height="8.77"></rect>				<path style="fill:#C8D5DC;" d="M64.1542,17.8527c-3.8842-1.8939-8.4242-1.8939-12.3084,0      c-1.7614,0.8931-3.2444,2.2518-4.2879,3.9285c-1.0457,1.6974-1.5861,3.6576-1.5579,5.6511      c-0.0283,1.9935,0.5121,3.9537,1.5579,5.6511c1.0434,1.6768,2.5264,3.0355,4.2879,3.9286c3.8843,1.8937,8.4241,1.8937,12.3084,0      c1.7615-0.8931,3.2445-2.2518,4.2879-3.9286c1.0458-1.6974,1.5862-3.6576,1.5579-5.6511      c0.0282-1.9935-0.5122-3.9537-1.5579-5.6511C67.3986,20.1045,65.9156,18.7458,64.1542,17.8527z M63.2064,30.5673      c-0.51,0.8912-1.2573,1.6234-2.1588,2.115c-1.9087,1-4.1865,1-6.0952,0c-0.9015-0.4916-1.6488-1.2238-2.1588-2.115      c-1.0581-1.9561-1.0581-4.3139,0-6.27c0.51-0.8912,1.2573-1.6234,2.1588-2.115c1.9087-1,4.1865-1,6.0952,0      c0.9015,0.4916,1.6488,1.2238,2.1588,2.115C64.2645,26.2534,64.2645,28.6112,63.2064,30.5673z"></path>				<path style="fill:#C8D5DC;" d="M157.49,16.4323l-9.49,21h6.2039l1.6892-4.08h9.0909l1.6892,4.08H173l-9.5209-21L157.49,16.4323z       M157,29.4323l3-7l3,7H157z"></path>				<polygon style="fill:#C8D5DC;" points="189.975,16.432 184.767,24.772 179.558,16.432 173,16.432 181.378,29.812       181.378,37.432 187.591,37.432 187.591,29.902 196,16.432     "></polygon>				<polygon style="fill:#C8D5DC;" points="100,21.142 106.515,21.142 106.515,37.432 112.515,37.432 112.515,21.142 119,21.142       119,16.432 100,16.432     "></polygon>				<path style="fill:#C8D5DC;" d="M142.4651,28.1773c0.7503-1.1877,1.1333-2.5705,1.1008-3.975      c0.034-1.4626-0.3769-2.901-1.1783-4.125c-0.8301-1.2064-1.9938-2.1447-3.3488-2.7c-1.6223-0.6635-3.364-0.9852-5.1163-0.945      H124v21h6.14v-5.58h3.3489l3.938,5.58H144l-4.6822-6.6C140.5977,30.2641,141.6894,29.3432,142.4651,28.1773z M137.0687,26.6567      c-0.8029,0.5726-1.7804,0.8469-2.764,0.7756H131v-6h3.3047c0.9858-0.0719,1.9651,0.208,2.764,0.79      c0.6355,0.5593,0.9788,1.3795,0.9313,2.2247c0.0495,0.8413-0.2946,1.6579-0.9313,2.21L137.0687,26.6567z"></path>				<path style="fill:#C8D5DC;" d="M83.9847,22.1439c0.9535-0.515,2.0237-0.7752,3.1072-0.7555      c1.9768-0.002,3.8427,0.9134,5.051,2.478L96,20.4213c-1.0447-1.2922-2.39-2.3089-3.9183-2.9613      c-1.6751-0.7056-3.4786-1.0555-5.296-1.0275c-2.0999-0.0341-4.176,0.4484-6.0457,1.405      c-3.5906,1.8376-5.8187,5.5621-5.74,9.5948c-0.0787,4.0327,2.1494,7.7572,5.74,9.5948      c1.8697,0.9567,3.9459,1.4393,6.0459,1.4052c1.8174,0.028,3.6209-0.3219,5.296-1.0275      c1.5283-0.6524,2.8735-1.6692,3.9181-2.9615l-3.8571-3.4451c-1.2083,1.5646-3.0741,2.4801-5.051,2.4781      c-1.0835,0.0196-2.1537-0.2406-3.1072-0.7555c-0.8955-0.4909-1.6293-1.2311-2.1123-2.1308c-1-1.9866-1-4.3293,0-6.3159      C82.3555,23.3746,83.0893,22.6346,83.9847,22.1439z"></path>			</g>		</g>	</g></g></svg>